# Blender v2.77 (sub 0) OBJ File: ''
# www.blender.org
mtllib branche.mtl
o Cone_Cone.004
v 0.572743 2.453887 -0.642158
v 0.767834 2.453887 -0.622943
v 0.955427 2.453887 -0.566037
v 1.128314 2.453887 -0.473628
v 1.279850 2.453887 -0.349265
v 1.404213 2.453887 -0.197728
v 1.496623 2.453887 -0.024841
v 1.553529 2.453887 0.162752
v 1.572743 2.453887 0.357842
v 0.572743 4.453887 0.357842
v 1.553529 2.453887 0.552932
v 1.496623 2.453887 0.740525
v 1.404213 2.453887 0.913412
v 1.279850 2.453887 1.064949
v 1.128314 2.453887 1.189312
v 0.955427 2.453887 1.281722
v 0.767833 2.453887 1.338627
v 0.572743 2.453887 1.357842
v 0.377653 2.453887 1.338627
v 0.190059 2.453887 1.281721
v 0.017173 2.453887 1.189311
v -0.134364 2.453887 1.064948
v -0.258727 2.453887 0.913412
v -0.351137 2.453887 0.740525
v -0.408042 2.453887 0.552932
v -0.427257 2.453887 0.357841
v -0.408042 2.453887 0.162751
v -0.351136 2.453887 -0.024842
v -0.258726 2.453887 -0.197729
v -0.134363 2.453887 -0.349266
v 0.017174 2.453887 -0.473628
v 0.190061 2.453887 -0.566038
v 0.377655 2.453887 -0.622943
vn 0.087800 0.445500 -0.891000
vn 0.259900 0.445500 -0.856700
vn 0.422000 0.445500 -0.789600
vn 0.568000 0.445500 -0.692100
vn 0.692100 0.445500 -0.568000
vn 0.789600 0.445500 -0.422000
vn 0.856700 0.445500 -0.259900
vn 0.891000 0.445500 -0.087800
vn 0.891000 0.445500 0.087800
vn 0.856700 0.445500 0.259900
vn 0.789600 0.445500 0.422000
vn 0.692100 0.445500 0.568000
vn 0.568000 0.445500 0.692100
vn 0.422000 0.445500 0.789600
vn 0.259900 0.445500 0.856700
vn 0.087800 0.445500 0.891000
vn -0.087800 0.445500 0.891000
vn -0.259900 0.445500 0.856700
vn -0.422000 0.445500 0.789600
vn -0.568000 0.445500 0.692100
vn -0.692100 0.445500 0.568000
vn -0.789600 0.445500 0.422000
vn -0.856700 0.445500 0.259900
vn -0.891000 0.445500 0.087800
vn -0.891000 0.445500 -0.087800
vn -0.856700 0.445500 -0.259900
vn -0.789600 0.445500 -0.422000
vn -0.692100 0.445500 -0.568000
vn -0.568000 0.445500 -0.692100
vn -0.422000 0.445500 -0.789600
vn -0.259900 0.445500 -0.856700
vn -0.087800 0.445500 -0.891000
vn 0.000000 -1.000000 -0.000000
usemtl None
s off
f 1//1 10//1 2//1
f 2//2 10//2 3//2
f 3//3 10//3 4//3
f 4//4 10//4 5//4
f 5//5 10//5 6//5
f 6//6 10//6 7//6
f 7//7 10//7 8//7
f 8//8 10//8 9//8
f 9//9 10//9 11//9
f 11//10 10//10 12//10
f 12//11 10//11 13//11
f 13//12 10//12 14//12
f 14//13 10//13 15//13
f 15//14 10//14 16//14
f 16//15 10//15 17//15
f 17//16 10//16 18//16
f 18//17 10//17 19//17
f 19//18 10//18 20//18
f 20//19 10//19 21//19
f 21//20 10//20 22//20
f 22//21 10//21 23//21
f 23//22 10//22 24//22
f 24//23 10//23 25//23
f 25//24 10//24 26//24
f 26//25 10//25 27//25
f 27//26 10//26 28//26
f 28//27 10//27 29//27
f 29//28 10//28 30//28
f 30//29 10//29 31//29
f 31//30 10//30 32//30
f 32//31 10//31 33//31
f 33//32 10//32 1//32
f 17//33 25//33 8//33
f 33//33 1//33 2//33
f 2//33 3//33 4//33
f 4//33 5//33 6//33
f 6//33 7//33 4//33
f 8//33 9//33 11//33
f 11//33 12//33 8//33
f 13//33 14//33 17//33
f 15//33 16//33 17//33
f 17//33 18//33 19//33
f 19//33 20//33 21//33
f 21//33 22//33 23//33
f 23//33 24//33 25//33
f 25//33 26//33 27//33
f 27//33 28//33 29//33
f 29//33 30//33 33//33
f 31//33 32//33 33//33
f 33//33 2//33 8//33
f 4//33 7//33 8//33
f 8//33 12//33 13//33
f 14//33 15//33 17//33
f 17//33 19//33 25//33
f 21//33 23//33 25//33
f 25//33 27//33 33//33
f 30//33 31//33 33//33
f 2//33 4//33 8//33
f 8//33 13//33 17//33
f 19//33 21//33 25//33
f 27//33 29//33 33//33
f 33//33 8//33 25//33
