# Blender v2.77 (sub 0) OBJ File: 'spaceship.blend'
# www.blender.org
o Cube.001_Cube.002
v -5.033833 -2.829785 -2.517506
v 0.178311 -1.508118 -3.860944
v -5.159975 -2.630349 -4.030406
v -0.669724 -3.392474 -4.995917
v -1.608656 -3.419876 -4.187093
v -1.515903 -2.701416 -2.702654
v -8.548561 -2.953887 -2.289950
v -8.053346 -2.726007 -2.943699
v -1.454474 -1.563517 -3.732110
v -7.478268 -2.957368 -2.782779
v 3.854675 -2.324488 -4.741704
v -1.655569 -2.292647 -4.296940
v 0.476760 -2.633807 -2.859884
v 0.384008 -3.352266 -4.344323
v 0.337094 -2.225037 -4.454170
v 6.882349 -2.219249 -4.122194
v 3.883658 -3.020899 -4.673840
v 3.980816 -2.523924 -3.228803
v -0.512635 -2.658369 -2.689384
v 7.488074 -2.409775 -3.555314
v 7.454486 -2.779703 -4.140072
v 7.428842 -2.163529 -4.200117
v 6.356487 -2.487965 -3.874405
v 6.904654 -2.755186 -4.069968
v 6.933869 -2.433429 -3.561357
v -5.130991 -3.326760 -3.962543
v -0.765316 -2.651356 -5.888730
v -8.582150 -3.323815 -2.874708
v -8.031041 -3.261943 -2.891473
v -8.001826 -2.940187 -2.382862
v -8.607795 -2.707641 -2.934753
v 0.243769 -2.140558 -4.451960
v -0.662087 -1.127054 -3.924990
v -1.568955 -2.202063 -4.308928
v -0.686439 -1.761803 -4.506567
v -0.577823 -1.427866 -2.986421
v -7.719680 -3.346148 -3.160001
v -8.618177 -3.046648 -3.212121
v 1.349306 -2.610957 -2.998057
v -8.576192 -2.584239 -2.481173
v 0.232879 -2.635326 -2.771317
v -8.444054 -3.286749 -2.865565
v -2.398854 -2.738130 -2.702310
v -7.668012 -2.920373 -2.322100
v -2.557974 -2.525799 -4.627623
v -7.747828 -2.669796 -3.225910
v -8.413745 -2.952950 -2.337917
v -8.544137 -3.354456 -2.406117
v 1.223652 -3.202742 -4.845010
v 1.190186 -2.398626 -4.923370
v 0.424251 -2.108903 -3.299648
v 0.471164 -3.236133 -3.189801
v 6.613128 -2.435824 -3.448948
v 6.561460 -2.861600 -4.286849
v 6.533311 -2.185248 -4.352758
v 3.813342 -2.747079 -5.447256
v 3.934789 -2.125859 -3.640960
v 3.971018 -2.996373 -3.556130
v 7.347656 -2.418177 -3.581563
v 7.317348 -2.751976 -4.109211
v 7.294208 -2.195981 -4.163392
v 7.492499 -2.810344 -3.671481
v 7.460444 -2.040127 -3.746537
v 7.418459 -2.502537 -4.477485
v 6.514288 -2.456402 -3.617901
v 6.492377 -2.697719 -3.999360
v 6.475649 -2.295767 -4.038529
v 6.909837 -2.111916 -3.727679
v 6.873318 -2.514112 -4.363443
v 6.937718 -2.781837 -3.662396
v 0.287827 -2.273517 -4.812252
v 0.091875 -3.365520 -4.872326
v -5.079860 -2.431720 -2.929663
v -5.201308 -3.052939 -4.735959
v -5.043631 -3.302234 -2.844833
v -8.467194 -2.730754 -2.919745
v -7.634341 -2.774509 -2.925187
v -7.997978 -3.288594 -2.483902
v -8.062377 -3.020869 -3.184948
v -7.617612 -3.176461 -2.886017
v -8.025858 -2.618674 -2.549184
v -7.595701 -2.935144 -2.504559
v -1.521499 -3.303742 -3.032571
v -2.524508 -3.329914 -4.549263
v -1.568412 -2.176513 -3.142418
v -1.261618 -2.686033 -2.653394
v 0.206678 -1.870609 -3.944467
v 0.089733 -1.722363 -3.331432
v -0.059864 -2.508281 -5.565296
v -0.549625 -1.853527 -2.812096
v -0.692354 -1.398735 -4.425404
v -0.043791 -1.208470 -3.941187
v -0.694156 -2.188573 -4.787876
v -0.062055 -1.684532 -4.377370
v 0.013457 -1.375062 -3.287293
v -1.659852 -2.339600 -4.658571
v -1.402622 -3.416227 -4.754404
v -1.471092 -1.927535 -3.812083
v -1.269811 -1.768491 -3.224157
v -1.419407 -2.554409 -5.458021
v -1.268379 -1.250020 -3.844561
v -0.616842 -1.089264 -3.335328
v -1.286644 -1.726081 -4.280744
v -1.211132 -1.416611 -3.190667
v -0.531214 -3.339111 -3.217564
v -0.792859 -3.077030 -6.420840
v -2.415001 -3.252908 -3.128301
v -2.453901 -2.318215 -3.219385
v -1.307832 -2.137545 -4.510832
v 1.333159 -3.125736 -3.424048
v 1.294259 -2.191043 -3.515132
v -0.049505 -2.094851 -4.610120
v 0.217547 -3.296464 -3.249931
v 0.155024 -1.643955 -3.439271
v 7.351649 -2.779625 -3.686385
v 7.322724 -2.084630 -3.754111
v 7.284839 -2.501879 -4.413671
v 6.614285 -2.880444 -3.625468
v 6.579100 -2.035004 -3.707855
v 6.514514 -2.567224 -4.755231
v 6.620281 -2.674139 -3.734767
v 6.602932 -2.257300 -3.775387
v 6.580210 -2.507555 -4.170974
v -1.276951 -3.347171 -3.132008
v -1.356321 -1.695233 -3.320019
v -8.409752 -3.314398 -2.442738
v -8.438677 -2.619403 -2.510464
v -8.476562 -3.036652 -3.170024
v -7.666855 -3.364993 -2.498621
v -7.702041 -2.519553 -2.581007
v -7.766626 -3.051772 -3.628383
v 0.255848 -1.903609 -3.172568
v 0.394616 -2.978319 -6.599550
v -0.169678 -1.180905 -3.498097
v -0.224732 -1.418886 -4.298149
v -7.703782 -3.160144 -2.604533
v -7.721130 -2.743305 -2.645153
v -7.743853 -2.993560 -3.040740
v -1.396397 -1.959668 -3.042198
v -1.997588 -3.059485 -6.410794
v -1.076781 -1.211683 -3.426523
v -1.131834 -1.449663 -4.226575
vn 0.077200 -0.568900 0.818800
vn 0.023600 0.720400 0.693100
vn 0.043400 0.544700 0.837500
vn 0.121100 -0.567000 0.814800
vn 0.995400 0.060700 0.074500
vn 0.868400 0.174900 -0.463900
vn 0.718300 0.375600 -0.585600
vn 0.705600 0.707500 0.038700
vn -0.071900 0.987500 -0.140300
vn -0.149400 0.852100 -0.501600
vn -0.218100 0.712900 -0.666500
vn -0.068600 0.982700 -0.172300
vn 0.030900 -0.999100 0.027600
vn 0.041200 -0.998800 0.026800
vn -0.038500 -0.976300 -0.212800
vn 0.070400 -0.972600 -0.221400
vn -0.122200 -0.990500 0.063100
vn -0.083300 -0.995800 -0.036700
vn -0.130700 -0.985400 0.109000
vn -0.026300 0.640400 0.767600
vn 0.020300 -0.480400 0.876800
vn -0.139600 -0.474700 0.869000
vn -0.185200 0.620100 0.762300
vn -0.325300 0.260100 -0.909200
vn 0.045600 -0.277800 0.959600
vn 0.014900 0.460300 0.887600
vn -0.295500 -0.456300 -0.839300
vn 0.052000 -0.633300 0.772100
vn -0.089400 -0.429400 0.898700
vn -0.290400 -0.918000 0.270000
vn 0.026200 -0.965100 0.260700
vn -0.893700 0.319500 0.315000
vn -0.768900 0.564300 0.300700
vn -0.770600 0.507200 -0.386000
vn -0.940200 0.113500 -0.321200
vn -0.697700 -0.702900 -0.137900
vn -0.700200 0.113100 0.705000
vn -0.765300 0.530000 -0.365400
vn -0.032600 0.984000 -0.175200
vn -0.025600 0.984100 -0.175700
vn 0.075300 0.853500 -0.515600
vn 0.011200 0.857500 -0.514300
vn -0.205500 0.970800 -0.123600
vn -0.150000 0.984800 -0.087700
vn -0.568500 0.816700 -0.099300
vn 0.103000 0.644800 0.757400
vn 0.260100 0.635300 0.727200
vn 0.305700 -0.459600 0.833900
vn 0.149700 -0.476100 0.866600
vn 0.150000 -0.984800 0.087700
vn -0.036600 -0.998300 0.045300
vn 0.143400 -0.988200 -0.054600
vn 0.117800 0.981800 -0.149100
vn 0.728700 0.673700 -0.122800
vn 0.115400 0.981400 -0.153200
vn 0.112400 -0.631300 0.767400
vn 0.080100 -0.963200 0.256500
vn 0.194400 -0.979700 0.049200
vn 0.439300 -0.576900 0.688600
vn 0.085900 -0.936700 -0.339400
vn 0.127200 -0.834000 -0.536900
vn 0.056900 -0.998200 0.017500
vn 0.065000 -0.996700 0.049000
vn 0.090500 -0.568400 0.817700
vn 0.089700 -0.367300 0.925800
vn -0.007100 0.718900 0.695100
vn 0.036800 0.720900 0.692100
vn 0.103200 0.154600 0.982600
vn 0.041800 0.152500 0.987400
vn 0.096700 -0.611800 0.785100
vn 0.106500 -0.584700 0.804200
vn 0.160600 0.276600 -0.947500
vn 0.190400 -0.439800 -0.877700
vn 0.093400 0.463000 0.881400
vn 0.124100 -0.275100 0.953400
vn 0.285500 0.755300 0.590000
vn 0.208100 0.977000 0.047000
vn 0.097100 -0.994600 -0.036100
vn 0.173500 -0.751800 -0.636100
vn 0.287400 -0.929100 0.232700
vn 0.341900 -0.601300 0.722200
vn 0.116100 0.626800 -0.770500
vn -0.005900 0.965000 -0.262100
vn 0.710300 -0.603200 -0.362800
vn 0.658900 0.651200 -0.376500
vn 0.798800 0.018300 0.601400
vn -0.001500 0.997900 0.065400
vn 0.053900 0.774400 0.630400
vn 0.215600 0.597500 0.772400
vn 0.313600 0.948900 0.036600
vn -0.026300 -0.460900 -0.887100
vn -0.057100 0.277500 -0.959000
vn 0.088200 0.504100 -0.859200
vn 0.328300 -0.414500 -0.848800
vn -0.074700 -0.942100 -0.326800
vn 0.020900 -0.999600 0.020300
vn 0.013900 -0.999700 0.020800
vn -0.138300 -0.937500 -0.319300
vn -0.009600 0.922000 -0.387000
vn -0.156500 0.775200 -0.612000
vn -0.130100 0.906500 -0.401600
vn -0.113300 0.918500 -0.378800
vn -0.239700 0.737500 0.631400
vn -0.220000 -0.765200 -0.605100
vn -0.018700 -0.997800 -0.063700
vn -0.263500 0.961000 0.084200
vn -0.055500 0.996000 0.069600
vn -0.199600 0.972800 -0.117500
vn -0.340600 0.708300 0.618200
vn -0.006500 0.772400 0.635100
vn -0.082000 -0.462800 -0.882700
vn -0.207400 -0.662900 -0.719500
vn -0.457000 0.243100 -0.855600
vn -0.112700 0.275600 -0.954600
vn -0.184200 -0.945100 0.270000
vn -0.116300 0.969100 -0.217500
vn -0.277300 0.613500 -0.739400
vn -0.183300 -0.619100 0.763600
vn 0.355900 0.835600 -0.418500
vn 0.895100 -0.363100 0.258600
vn 0.807500 0.578600 -0.114800
vn 0.092000 0.937800 -0.334800
vn -0.235500 0.824300 -0.514900
vn -0.249000 0.967500 -0.042900
vn 0.129900 0.991200 -0.024800
vn 0.167300 0.862200 -0.478200
vn -0.449900 0.835700 -0.314800
vn -0.206200 0.927700 -0.311300
vn -0.830800 0.556500 0.006700
vn -0.817100 -0.421200 0.393700
vn -0.422900 0.191100 -0.885800
vn 0.145400 0.363500 -0.920200
vn 0.149100 0.542300 -0.826800
vn -0.284000 0.479100 -0.830600
vn 0.547000 0.348000 0.761300
vn 0.454400 -0.013400 0.890700
vn 0.368700 0.687300 0.625800
vn -0.175200 0.790400 0.587000
vn -0.307300 -0.039200 0.950800
vn -0.443200 0.314400 0.839500
vn 0.094500 -0.636400 0.765500
vn 0.035600 0.777600 0.627700
vn 0.067500 0.721400 0.689200
vn 0.081400 -0.367600 0.926400
vn 0.908400 0.380600 0.172800
vn 0.866000 0.266500 -0.423100
vn 0.664600 0.555900 -0.499200
vn 0.766700 0.616400 0.179500
vn -0.061600 0.983000 -0.172900
vn -0.171400 0.927700 -0.331500
vn -0.212400 0.843700 -0.492900
vn -0.062100 0.973000 -0.222300
vn 0.058500 -0.997600 0.037900
vn 0.015500 -0.999000 0.041300
vn -0.016000 -0.978600 -0.205000
vn 0.049500 -0.976400 -0.210200
vn -0.067700 -0.992200 0.104900
vn -0.106900 -0.979200 -0.172500
vn 0.110400 -0.993300 0.033700
vn -0.175700 0.754900 0.631800
vn -0.118100 -0.630900 0.766800
vn 0.218200 -0.575600 0.788100
vn -0.693600 0.235600 0.680700
vn 0.093200 -0.367200 0.925500
vn 0.055200 0.545100 0.836600
vn -0.286100 -0.601500 0.745900
vn -0.117900 -0.990300 0.073800
vn -0.973200 -0.006100 0.229900
vn -0.736900 0.658600 0.152500
vn -0.824900 0.323300 -0.463800
vn -0.937600 0.205300 -0.280800
vn -0.716100 -0.651600 -0.250200
vn -0.694100 -0.032400 0.719200
vn -0.752100 0.603300 -0.265200
vn -0.017700 0.989300 -0.144500
vn -0.039100 0.973800 -0.224100
vn 0.062400 0.722500 -0.688600
vn 0.054500 0.935400 -0.349400
vn -0.202200 0.919000 -0.338600
vn -0.203900 0.970600 -0.128000
vn -0.782600 0.622500 -0.003500
vn 0.221300 0.768400 0.600500
vn 0.774200 0.285500 0.564900
vn -0.052800 -0.584800 0.809500
vn 0.278900 -0.617400 0.735500
vn 0.197100 -0.979700 0.037900
vn 0.212200 -0.973800 0.081900
vn 0.144200 -0.970700 -0.192300
vn 0.084300 0.928700 -0.361200
vn 0.489600 0.852600 -0.182800
vn 0.067700 0.992200 -0.104900
vn 0.390300 -0.894900 0.216300
vn 0.257800 -0.417600 0.871300
vn 0.128300 -0.974300 -0.185300
vn 0.149400 -0.927700 -0.342000
vn 0.043000 -0.998600 -0.031900
vn 0.049900 -0.998600 0.018000
vn 0.069700 -0.637300 0.767500
vn 0.046500 -0.569500 0.820600
vn 0.051700 0.545000 0.836900
vn 0.010800 0.776800 0.629700
vn 0.390500 0.433200 0.812300
vn -0.286700 0.410200 0.865800
vn 0.060500 -0.586200 0.807900
vn 0.068900 -0.612700 0.787300
vn 0.160600 0.276500 -0.947500
vn 0.039900 0.544500 0.837800
vn 0.077900 -0.367700 0.926700
vn 0.075700 -0.994600 -0.071200
vn 0.222600 -0.815200 -0.534700
vn 0.341900 -0.601300 0.722100
vn 0.159000 0.712400 -0.683500
vn 0.015200 0.973600 -0.227900
vn 0.713300 -0.655100 -0.249300
vn 0.661100 0.578300 -0.477900
vn 0.792700 0.163800 0.587200
vn 0.384800 0.733000 0.561000
vn 0.112700 0.983400 -0.142100
vn 0.299900 0.268800 -0.915300
vn 0.136300 -0.651200 -0.746600
vn -0.089900 -0.981700 -0.168000
vn 0.010800 -0.998500 0.053300
vn 0.019900 -0.999300 -0.030100
vn -0.153300 -0.843500 -0.514800
vn -0.024000 0.917600 -0.396900
vn 0.004200 0.911100 -0.412200
vn 0.006200 0.780700 -0.624900
vn -0.100400 0.915000 -0.390900
vn -0.248200 -0.831200 -0.497500
vn -0.034400 -0.999100 -0.025700
vn -0.367200 0.925800 0.090300
vn -0.131700 0.585700 0.799800
vn -0.006500 0.772400 0.635200
vn -0.428500 -0.440200 -0.789000
vn -0.255400 0.492400 -0.832000
vn -0.100300 0.961800 -0.254700
vn -0.311800 0.696400 -0.646400
vn 0.337700 0.862500 -0.377000
vn 0.887400 -0.379800 0.261100
vn 0.782200 0.611200 -0.120600
vn 0.146200 0.923200 -0.355300
vn -0.297800 0.846400 -0.441500
vn -0.198600 0.980100 0.001200
vn 0.173500 0.981900 -0.076200
vn 0.095800 0.835500 -0.541100
vn -0.472500 0.807500 -0.353100
vn -0.261900 0.909400 -0.323100
vn -0.852600 0.522300 0.016200
vn -0.807900 -0.437300 0.394900
vn -0.311900 0.348000 -0.884100
vn 0.265100 0.214500 -0.940100
vn 0.117400 0.492700 -0.862200
vn -0.313000 0.526600 -0.790400
vn 0.300200 0.769400 0.563900
vn 0.814400 0.106400 0.570400
vn 0.211400 0.803500 0.556400
vn -0.311500 0.664300 0.679500
vn -0.720300 0.054300 0.691500
vn -0.259300 0.750400 0.608000
s off
f 75//1 43//1 1//1
f 43//2 73//2 1//2
f 1//3 130//3 44//3
f 1//4 129//4 75//4
f 2//5 114//5 87//5
f 87//6 94//6 2//6
f 2//7 135//7 92//7
f 2//8 134//8 95//8
f 3//9 108//9 45//9
f 45//10 74//10 3//10
f 3//11 131//11 46//11
f 46//12 73//12 3//12
f 72//13 105//13 4//13
f 105//14 97//14 4//14
f 97//15 106//15 4//15
f 106//16 72//16 4//16
f 5//17 107//17 84//17
f 84//18 97//18 5//18
f 5//19 124//19 83//19
f 85//20 43//20 6//20
f 43//21 83//21 6//21
f 83//22 86//22 6//22
f 86//23 85//23 6//23
f 7//24 126//24 48//24
f 48//25 44//25 7//25
f 44//26 40//26 7//26
f 7//27 127//27 47//27
f 76//28 79//28 8//28
f 8//29 138//29 77//29
f 8//30 137//30 81//30
f 81//31 76//31 8//31
f 9//32 125//32 104//32
f 9//33 141//33 101//33
f 9//34 142//34 103//34
f 103//35 98//35 9//35
f 10//36 137//36 77//36
f 10//37 138//37 80//37
f 10//38 136//38 82//38
f 11//39 111//39 57//39
f 57//40 55//40 11//40
f 11//41 120//41 56//41
f 56//42 50//42 11//42
f 96//43 45//43 12//43
f 12//44 108//44 85//44
f 12//45 139//45 96//45
f 39//46 51//46 13//46
f 51//47 41//47 13//47
f 41//48 52//48 13//48
f 52//49 39//49 13//49
f 14//50 110//50 52//50
f 14//51 113//51 72//51
f 72//52 49//52 14//52
f 50//53 71//53 15//53
f 15//54 132//54 51//54
f 15//55 111//55 50//55
f 69//56 61//56 16//56
f 61//57 68//57 16//57
f 16//58 122//58 67//58
f 16//59 123//59 69//59
f 49//60 56//60 17//60
f 17//61 120//61 54//61
f 54//62 58//62 17//62
f 17//63 110//63 49//63
f 39//64 58//64 18//64
f 18//65 118//65 53//65
f 18//66 119//66 57//66
f 57//67 39//67 18//67
f 41//68 90//68 19//68
f 90//69 86//69 19//69
f 19//70 124//70 105//70
f 19//71 113//71 41//71
f 20//72 115//72 59//72
f 20//73 116//73 63//73
f 63//74 53//74 20//74
f 53//75 62//75 20//75
f 21//76 117//76 60//76
f 21//77 115//77 62//77
f 21//78 118//78 54//78
f 54//79 64//79 21//79
f 22//80 116//80 61//80
f 22//81 117//81 64//81
f 64//82 55//82 22//82
f 22//83 119//83 63//83
f 23//84 122//84 65//84
f 23//85 121//85 66//85
f 23//86 123//86 67//86
f 70//87 60//87 24//87
f 60//88 69//88 24//88
f 24//89 123//89 66//89
f 24//90 121//90 70//90
f 68//91 59//91 25//91
f 59//92 70//92 25//92
f 25//93 121//93 65//93
f 25//94 122//94 68//94
f 74//95 84//95 26//95
f 26//96 107//96 75//96
f 75//97 37//97 26//97
f 26//98 131//98 74//98
f 93//99 89//99 27//99
f 27//100 133//100 106//100
f 27//101 140//101 100//101
f 100//102 93//102 27//102
f 28//103 128//103 38//103
f 38//104 37//104 28//104
f 28//105 129//105 48//105
f 28//106 126//106 42//106
f 42//107 78//107 29//107
f 29//108 136//108 80//108
f 29//109 138//109 79//109
f 79//110 42//110 29//110
f 47//111 81//111 30//111
f 30//112 137//112 82//112
f 30//113 136//113 78//113
f 78//114 47//114 30//114
f 31//115 127//115 40//115
f 31//116 130//116 46//116
f 46//117 38//117 31//117
f 31//118 128//118 76//118
f 32//119 112//119 87//119
f 87//120 88//120 32//120
f 32//121 132//121 71//121
f 71//122 89//122 32//122
f 33//123 142//123 101//123
f 33//124 141//124 102//124
f 33//125 134//125 92//125
f 33//126 135//126 91//126
f 34//127 109//127 100//127
f 100//128 96//128 34//128
f 34//129 139//129 99//129
f 99//130 98//130 34//130
f 35//131 142//131 91//131
f 35//132 135//132 94//132
f 35//133 112//133 93//133
f 35//134 109//134 103//134
f 90//135 88//135 36//135
f 88//136 95//136 36//136
f 36//137 134//137 102//137
f 36//138 141//138 104//138
f 104//139 99//139 36//139
f 99//140 90//140 36//140
f 75//141 107//141 43//141
f 43//142 108//142 73//142
f 1//143 73//143 130//143
f 1//144 44//144 129//144
f 2//145 95//145 114//145
f 87//146 112//146 94//146
f 2//147 94//147 135//147
f 2//148 92//148 134//148
f 3//149 73//149 108//149
f 45//150 140//150 74//150
f 3//151 74//151 131//151
f 46//152 130//152 73//152
f 72//153 113//153 105//153
f 105//154 124//154 97//154
f 97//155 140//155 106//155
f 106//156 133//156 72//156
f 5//157 83//157 107//157
f 84//158 140//158 97//158
f 5//159 97//159 124//159
f 85//160 108//160 43//160
f 43//161 107//161 83//161
f 83//162 124//162 86//162
f 86//163 139//163 85//163
f 7//24 47//24 126//24
f 48//164 129//164 44//164
f 44//165 130//165 40//165
f 7//27 40//27 127//27
f 76//28 128//28 79//28
f 8//166 79//166 138//166
f 8//167 77//167 137//167
f 81//31 127//31 76//31
f 9//168 98//168 125//168
f 9//169 104//169 141//169
f 9//170 101//170 142//170
f 103//171 109//171 98//171
f 10//172 82//172 137//172
f 10//173 77//173 138//173
f 10//174 80//174 136//174
f 11//175 50//175 111//175
f 57//176 119//176 55//176
f 11//177 55//177 120//177
f 56//178 133//178 50//178
f 96//179 140//179 45//179
f 12//180 45//180 108//180
f 12//181 85//181 139//181
f 39//182 111//182 51//182
f 51//183 132//183 41//183
f 41//184 113//184 52//184
f 52//185 110//185 39//185
f 14//186 49//186 110//186
f 14//187 52//187 113//187
f 72//188 133//188 49//188
f 50//189 133//189 71//189
f 15//190 71//190 132//190
f 15//191 51//191 111//191
f 69//56 117//56 61//56
f 61//57 116//57 68//57
f 16//192 68//192 122//192
f 16//193 67//193 123//193
f 49//194 133//194 56//194
f 17//195 56//195 120//195
f 54//196 118//196 58//196
f 17//197 58//197 110//197
f 39//198 110//198 58//198
f 18//199 58//199 118//199
f 18//200 53//200 119//200
f 57//201 111//201 39//201
f 41//202 132//202 90//202
f 90//203 139//203 86//203
f 19//204 86//204 124//204
f 19//205 105//205 113//205
f 20//206 62//206 115//206
f 20//73 59//73 116//73
f 63//207 119//207 53//207
f 53//208 118//208 62//208
f 21//76 64//76 117//76
f 21//77 60//77 115//77
f 21//209 62//209 118//209
f 54//210 120//210 64//210
f 22//80 63//80 116//80
f 22//211 61//211 117//211
f 64//212 120//212 55//212
f 22//213 55//213 119//213
f 23//214 67//214 122//214
f 23//215 65//215 121//215
f 23//216 66//216 123//216
f 70//87 115//87 60//87
f 60//88 117//88 69//88
f 24//217 69//217 123//217
f 24//218 66//218 121//218
f 68//91 116//91 59//91
f 59//92 115//92 70//92
f 25//219 70//219 121//219
f 25//220 65//220 122//220
f 74//221 140//221 84//221
f 26//222 84//222 107//222
f 75//223 129//223 37//223
f 26//224 37//224 131//224
f 93//225 112//225 89//225
f 27//226 89//226 133//226
f 27//227 106//227 140//227
f 100//228 109//228 93//228
f 28//103 42//103 128//103
f 38//229 131//229 37//229
f 28//230 37//230 129//230
f 28//106 48//106 126//106
f 42//107 126//107 78//107
f 29//231 78//231 136//231
f 29//232 80//232 138//232
f 79//233 128//233 42//233
f 47//111 127//111 81//111
f 30//234 81//234 137//234
f 30//235 82//235 136//235
f 78//114 126//114 47//114
f 31//115 76//115 127//115
f 31//236 40//236 130//236
f 46//237 131//237 38//237
f 31//118 38//118 128//118
f 32//238 89//238 112//238
f 87//239 114//239 88//239
f 32//240 88//240 132//240
f 71//241 133//241 89//241
f 33//242 91//242 142//242
f 33//243 101//243 141//243
f 33//244 102//244 134//244
f 33//245 92//245 135//245
f 34//246 98//246 109//246
f 100//247 140//247 96//247
f 34//248 96//248 139//248
f 99//249 125//249 98//249
f 35//250 103//250 142//250
f 35//251 91//251 135//251
f 35//252 94//252 112//252
f 35//253 93//253 109//253
f 90//254 132//254 88//254
f 88//255 114//255 95//255
f 36//256 95//256 134//256
f 36//257 102//257 141//257
f 104//258 125//258 99//258
f 99//259 139//259 90//259
